<svg xmlns="http://www.w3.org/2000/svg" xmlns:xlink="http://www.w3.org/1999/xlink" xmlns:fi="http://pattern.flaticon.com/" x="0" y="0" width="700" height="350" viewBox="0 0 700 350"><rect x="0px" y="0px" width="100%" height="100%" opacity="1" fill="#ffffff"/><defs><g transform="matrix(0.1171877309679985 0 0 0.1171877309679985 41 66)" id="L1_0"><path d="M194.576,360.092c-4.143,0-7.502,3.359-7.502,7.502v11.469c0,4.143,3.359,7.502,7.502,7.502    c4.143,0,7.502-3.359,7.502-7.502v-11.469C202.078,363.451,198.719,360.092,194.576,360.092z"/><path d="M317.424,360.092c-4.143,0-7.502,3.359-7.502,7.502v11.469c0,4.143,3.359,7.502,7.502,7.502    c4.143,0,7.502-3.359,7.502-7.502v-11.469C324.926,363.451,321.567,360.092,317.424,360.092z"/><path d="M274.701,362.178h-37.402c-4.143,0-7.502,3.359-7.502,7.502v12.445c0,14.448,11.754,26.203,26.203,26.203    c14.448,0,26.203-11.754,26.203-26.203V369.68C282.203,365.537,278.845,362.178,274.701,362.178z M267.199,382.125    c0,6.175-5.023,11.199-11.199,11.199c-6.175,0-11.199-5.023-11.199-11.199v-4.943h22.398V382.125z"/><path d="M385.434,231.398h-23.603l17.564-95.424c3.026-1.431,5.937-3.203,8.687-5.315c10.823-8.316,17.261-19.758,19.135-34.007    c4.526-34.41-7.853-59.621-19.036-74.711c-7.695-10.384-23.019-8.771-29.45,2.008c-5.097,8.543-12.284,16.115-21.362,22.505    c-12.118,8.531-20.261,22.293-22.34,37.771l-0.039,0.295c-1.985,15.012,2.456,30.506,12.927,41.588l-19.38,105.292h-26.329V118.01    c1.331-0.973,2.627-2.012,3.868-3.134c10.128-9.15,15.636-21.067,16.371-35.39l0.018-0.342    c0.756-15.585-4.759-30.594-15.134-41.177c-7.77-7.928-13.469-16.676-16.935-25.999c-4.374-11.765-19.173-16.105-28.6-7.306    c-13.73,12.817-30.468,35.37-32.246,70.029c-0.736,14.354,3.524,26.772,12.664,36.91c2.329,2.583,4.871,4.85,7.581,6.805v112.991    h-26.329l-19.381-105.293c1.13-1.196,2.215-2.456,3.236-3.787c17.871-23.302,10.956-59.22-12.689-75.866    c-9.078-6.391-16.265-13.962-21.362-22.504c-6.446-10.804-21.772-12.368-29.45-2.009c-11.182,15.089-23.563,40.3-19.036,74.711    c2.209,16.795,12.36,32.008,27.823,39.324l17.564,95.424h-23.603c-14.198,0-25.749,11.55-25.749,25.748    c0,11.589,7.697,21.411,18.247,24.631v186.999c0,23.835,19.39,43.224,43.224,43.224h131.646c4.143,0,7.502-3.359,7.502-7.502    c0-4.143-3.359-7.502-7.502-7.502H162.288c-15.56,0-28.22-12.66-28.22-28.22V282.895h34.179c4.143,0,7.502-3.359,7.502-7.502    c0-4.143-3.359-7.502-7.502-7.502h-41.682c-5.925,0-10.745-4.82-10.745-10.745c0-5.925,4.82-10.744,10.745-10.744h258.868    c5.925,0,10.744,4.819,10.744,10.744c0,5.925-4.819,10.745-10.744,10.745H198.256c-4.143,0-7.502,3.359-7.502,7.502    c0,4.143,3.359,7.502,7.502,7.502h179.676v185.881c0,15.56-12.659,28.22-28.22,28.22h-25.77c-4.143,0-7.502,3.359-7.502,7.502    c0,4.143,3.359,7.502,7.502,7.502h25.77c23.834,0,43.224-19.39,43.224-43.224V281.777c10.549-3.22,18.246-13.042,18.246-24.631    C411.182,242.948,399.632,231.398,385.434,231.398z M119.658,94.692c-3.872-29.438,6.681-50.954,16.219-63.826    c1.406-1.893,3.471-0.965,4.504,0.768c6.183,10.363,14.799,19.475,25.61,27.087c16.807,11.831,22.154,37.854,9.419,54.468    c-10.105,13.182-29.148,15.716-42.352,5.571C125.504,112.954,120.995,104.857,119.658,94.692z M148.633,140.176    c1.011,0.07,2.026,0.113,3.045,0.114c0.001,0,0.001,0,0.002,0c5.682,0,11.207-1.113,16.359-3.19    c0.005-0.002,0.01-0.004,0.015-0.006c0.845-0.341,1.68-0.707,2.504-1.101c0.027-0.013,0.055-0.023,0.083-0.036l6.449,35.039    l-22.036,4.056L148.633,140.176z M165.425,231.398l-7.655-41.589l22.036-4.056l8.401,45.645H165.425z M267.203,231.398h-22.406    v-55.494h22.406V231.398z M267.203,160.9h-22.406v-35.449c3.523,0.897,7.169,1.372,10.893,1.372c3.608,0,7.487-0.504,11.089-1.446    c0.14-0.037,0.283-0.062,0.424-0.1V160.9z M276.017,103.742c-5.535,4.999-12.818,8.069-20.315,8.069    c-8.557,0-16.659-3.948-22.346-10.258c-6.38-7.076-9.348-15.856-8.822-26.094c1.52-29.653,15.794-48.903,27.507-59.837    c1.723-1.601,3.586-0.322,4.29,1.572c4.204,11.311,11.029,21.833,20.284,31.275c7.458,7.608,11.417,18.524,10.862,29.969    l-0.013,0.247C286.939,88.924,283.087,97.354,276.017,103.742z M329.867,86.479l0.036-0.272    c1.522-11.335,7.393-21.353,16.106-27.487c10.81-7.609,19.426-16.723,25.611-27.087c1.024-1.716,3.136-2.614,4.508-0.761    c9.535,12.867,20.089,34.383,16.216,63.821c-1.336,10.164-5.846,18.261-13.401,24.067c-13.214,10.151-32.194,7.681-42.353-5.571    C330.792,105.626,328.53,96.638,329.867,86.479z M346.576,231.398h-22.783l8.402-45.645l22.036,4.056L346.576,231.398z     M334.911,170.996l6.449-35.039c0.029,0.014,0.059,0.025,0.088,0.039c6.823,3.211,14.392,4.697,21.918,4.181l-6.419,34.875    L334.911,170.996z"/></g><g transform="matrix(0.1171872690320015 0 0 0.1171872690320015 38.00000686644171 251)" id="L1_2"><path d="M335.894,250.456c-4.142,0-7.5,3.357-7.5,7.5v14.459c0,4.142,3.358,7.5,7.5,7.5c4.142,0,7.5-3.358,7.5-7.5v-14.459    C343.394,253.813,340.036,250.456,335.894,250.456z"/><path d="M176.108,250.456c-4.142,0-7.5,3.357-7.5,7.5v14.459c0,4.142,3.358,7.5,7.5,7.5c4.142,0,7.5-3.358,7.5-7.5v-14.459    C183.608,253.813,180.25,250.456,176.108,250.456z"/><path d="M285.164,266.734c-3.119-2.726-7.856-2.408-10.583,0.711c-4.53,5.183-11.302,8.155-18.581,8.155    c-7.278,0-14.05-2.972-18.581-8.155c-2.726-3.119-7.464-3.437-10.583-0.711c-3.119,2.726-3.437,7.464-0.71,10.583    c7.379,8.441,18.268,13.283,29.874,13.283c11.607,0,22.496-4.841,29.875-13.284C288.601,274.198,288.283,269.46,285.164,266.734z"/><path d="M490.418,301.803c-4.482-11.484-5.595-24.209-3.217-36.799c3.236-17.137,1.483-44.261-23.709-78.207    c2.163-2.225,3.932-4.875,5.163-7.873c2.511-6.113,2.491-12.837-0.057-18.936c-1.58-3.783-4.018-7.041-7.099-9.57    c10.198-29.349,10.121-60.059-0.403-83.152c-5.618-12.328-14.07-22.899-25.121-31.42c-3.28-2.529-7.99-1.92-10.519,1.36    c-2.529,3.28-1.92,7.99,1.36,10.519c9.096,7.013,16.037,15.68,20.631,25.762c8.759,19.22,8.855,45.073,0.478,70.28    c-1.255-0.48-2.513-0.953-3.774-1.418c-14.838-5.475-29.971-9.922-45.345-13.607c-67.396-16.206-131.791-16.002-142.439-15.845    c-0.021,0-0.039,0.001-0.059,0.001c-0.101,0.001-0.213,0.003-0.304,0.005c-10.917-0.185-95.419-0.743-173.674,24.453    c-0.031,0.01-0.062,0.021-0.092,0.03c-4.923,1.563-9.804,3.269-14.648,5.059c-0.038,0.014-0.077,0.028-0.115,0.042    c1.727-31.758,11.083-55.11,27.876-69.504c21.625-18.535,56.075-23.841,105.317-16.22c14.668,2.27,27.61,2.496,39.875,1.043    c19.986-2.368,38.881-9.65,57.025-18.082c30.472-14.162,72.11-16.374,103.61-5.503c3.917,1.352,8.185-0.728,9.537-4.643    c1.351-3.916-0.728-8.186-4.643-9.536c-34.923-12.053-81.069-9.609-114.826,6.08c-8.487,3.944-16.394,7.311-24.111,10.017    c-0.908-8.141-3.238-16.123-6.896-23.481c-0.012-0.025-0.048-0.098-0.06-0.122C256.385,4.92,248.866,0,241.021,0    c-9.832,0-18.485,7.711-19.755,17.409c-0.745,5.688,0.95,11.594,4.651,16.205c2.324,2.896,4.132,6.298,5.348,9.947    c-8.782,0.46-18.047-0.035-28.304-1.622c-53.83-8.331-92.224-1.902-117.373,19.654c-21.379,18.325-32.59,47.766-33.361,87.543    c-3.899,2.667-6.962,6.39-8.825,10.852c-2.547,6.098-2.567,12.823-0.057,18.934c1.231,2.999,3.001,5.649,5.164,7.875    c-25.191,33.946-26.946,61.07-23.709,78.207c2.378,12.59,1.265,25.315-3.217,36.799c-11.471,29.391-3.432,51.218,5.333,64.354    c7.385,11.069,11.437,23.386,11.716,35.619c0.46,20.109,8.322,37.255,22.734,49.583c13.133,11.233,30.793,17.419,49.729,17.419    c1.244,0,2.492-0.036,3.742-0.09c-3.385,10.342-5.57,22.258-5.57,35.813c0,4.142,3.358,7.5,7.5,7.5h278.469    c4.142,0,7.5-3.358,7.5-7.5c0-13.554-2.185-25.47-5.57-35.813c1.248,0.053,2.496,0.089,3.742,0.089    c18.935,0,36.596-6.186,49.728-17.418c14.412-12.327,22.272-29.474,22.733-49.584c0.28-12.232,4.331-24.549,11.716-35.618    C493.85,353.021,501.889,331.194,490.418,301.803z M236.14,19.357c0.305-2.328,2.504-4.356,4.881-4.356    c2.169,0,4.473,1.697,5.752,4.265c3.304,6.647,5.238,13.891,5.693,21.217c-2.014,0.479-4.033,0.909-6.063,1.286    c-1.69-6.445-4.666-12.409-8.787-17.543C236.461,22.787,235.923,21.013,236.14,19.357z M57.245,165.771    c2.187-5.234,8.559-6.62,13.334-8.424c81.689-30.863,180.698-29.525,185.289-29.444c0.088,0.001,0.176,0.002,0.263,0    c0.084-0.001,0.183-0.003,0.289-0.005c7.28-0.103,104.751-0.89,185.092,29.481c0.057,0.021,0.114,0.042,0.17,0.064    c2.611,0.989,5.205,2.022,7.792,3.073c7.755,3.15,7.838,14.457,0.255,17.844c-5.431,2.426-11.017-1.278-16.063-3.113    c-32.594-12.19-68.433-19.068-99.303-22.938c-27.181-3.417-54.589-4.947-81.979-4.947c-15.847,0-90.888,1.192-158.148,22.414    c-8.26,2.606-16.403,5.515-24.304,8.76c-4.901,2.013-10.706-0.429-12.71-5.31C56.234,170.819,56.242,168.172,57.245,165.771z     M270.911,196.136c12.196,7.404,27.995,10.687,43.273,13.86c23.689,4.921,46.063,9.569,53.773,27.894    c5.581,13.265,0.577,28.245,12.34,39.248c7.276,6.806,16.888,9.093,25.494,13.583c6.206,3.237,10.401,7.005,12.794,11.499    l2.254,10.429c-10.318,32.977-31.694,62.639-60.356,83.693c-6.048,4.442-12.373,8.462-18.92,12.051    c-31.556,17.299-68.283,24.584-104.205,20.891c-23.32-2.398-46.1-9.481-66.67-20.722c-0.088-0.048-0.18-0.083-0.269-0.127    c-6.704-3.708-13.193-7.867-19.425-12.481c-28.567-21.151-49.795-50.843-60-83.836c2.864-6.204,9.317-17.945,15.935-21.397    c8.618-4.496,18.222-6.761,25.502-13.589c11.627-10.904,6.793-26.101,12.323-39.243c7.709-18.323,30.086-22.971,53.777-27.893    c15.28-3.174,31.08-6.456,43.277-13.86c6.151-3.734,10.992-8.239,14.552-13.57C259.92,187.897,264.76,192.402,270.911,196.136z     M53.628,401.431c-0.345-15.083-5.267-30.16-14.235-43.601c-9.871-14.793-11.162-31.809-3.837-50.575    c5.506-14.107,6.883-29.681,3.983-45.037c-2.729-14.454-0.9-37.832,22.394-68.328c0.067,0.012,0.134,0.017,0.201,0.028    c4.519,0.761,9.256,0.233,13.496-1.509c13.924-5.719,28.656-10.35,43.454-14.103c0.234-0.059,0.921-0.234,1.031-0.261    c54.221-13.601,109.096-15.454,128.176-15.661c-3.487,21.517-22.921,26.716-52.81,32.924    c-25.211,5.237-53.786,11.173-64.552,36.761c-4.158,9.88-0.528,26.421-8.751,34.113c-6.068,5.675-14.969,7.473-22.186,11.238    c-13.797,7.198-22.926,28.946-23.922,31.402c-0.633,1.562-0.722,3.291-0.251,4.909c10.791,37.154,34.319,70.636,66.25,94.277    c3.544,2.624,7.167,5.106,10.856,7.461c-4.815,3.649-10.735,8.789-16.675,15.591c-5.834,6.68-10.894,14.105-14.945,21.995    C87.79,457.779,54.451,437.351,53.628,401.431z M209.537,497h-37.744v-33.403c0-4.142-3.358-7.5-7.5-7.5    c-4.142,0-7.5,3.358-7.5,7.5V497h-32.275c0.816-12.013,3.621-23.223,8.375-33.556c0.083-0.151,0.173-0.298,0.247-0.456    c10.327-22.141,27.116-34.712,34.105-39.226c13.409,6.994,27.581,12.329,42.292,15.935V497z M287.464,497h-62.927v-54.256    c10.295,1.666,20.806,2.516,31.464,2.516c10.656,0,21.167-0.852,31.463-2.519V497z M355.208,496.999v-33.402    c0-4.142-3.358-7.5-7.5-7.5c-4.142,0-7.5,3.358-7.5,7.5V497h-37.744v-57.307c14.709-3.606,28.88-8.943,42.29-15.936    c4.303,2.768,12.242,8.526,20.076,17.603c13.466,15.603,21.26,35.109,22.654,55.639H355.208z M472.61,357.831    c-8.968,13.44-13.89,28.518-14.235,43.6c-0.824,35.966-30.367,52.347-57.467,52.346c-3.388,0-6.808-0.242-10.208-0.722    c-4.128-8.053-8.93-14.899-13.787-20.646c-0.024-0.025-0.046-0.05-0.067-0.076c-6.282-7.418-12.646-12.98-17.771-16.86    c3.493-2.229,6.926-4.573,10.289-7.043c31.809-23.365,55.395-56.51,66.413-93.33c0.412-1.375,0.41-2.793,0.053-4.107    c0,0-2.784-12.879-2.784-12.881c-1.979-9.152-12.646-16.691-20.315-20.692c-7.192-3.752-16.131-5.574-22.181-11.234    c-8.288-7.753-4.582-24.175-8.764-34.115c-10.767-25.589-39.339-31.525-64.548-36.762c-29.882-6.208-49.318-11.404-52.808-32.913    c25.357,0.32,107.356,3.487,171.943,30.014c2.968,1.221,6.184,1.859,9.392,1.859c0.815,0,3.79-0.297,4.3-0.386    c23.298,30.5,25.129,53.881,22.399,68.336c-2.9,15.356-1.523,30.93,3.983,45.037C483.772,326.022,482.481,343.037,472.61,357.831z    "/></g><g transform="matrix(0.1171875 0 0 0.1171875 201.00000595092752 71)" id="L1_3"><path d="M179.464,336.16c-4.142,0-7.5,3.358-7.5,7.5v14.296c0,4.142,3.358,7.5,7.5,7.5c4.142,0,7.5-3.358,7.5-7.5V343.66    C186.964,339.518,183.606,336.16,179.464,336.16z"/><path d="M332.592,336.16c-4.142,0-7.5,3.358-7.5,7.5v14.296c0,4.142,3.358,7.5,7.5,7.5c4.142,0,7.5-3.358,7.5-7.5V343.66    C340.092,339.518,336.734,336.16,332.592,336.16z"/><path d="M279.338,338.758h-46.621c-4.142,0-7.5,3.358-7.5,7.5v15.513c0,16.989,13.822,30.811,30.811,30.811    s30.81-13.821,30.81-30.811v-15.513C286.838,342.116,283.48,338.758,279.338,338.758z M271.838,361.771    c0,8.718-7.093,15.811-15.811,15.811s-15.81-7.092-15.81-15.811v-8.013h31.621V361.771z"/><path d="M427.255,158.944L385.527,19.85c-2.824-9.417-11.327-15.743-21.159-15.743h-41.052C320.765,1.571,317.254,0,313.381,0    H198.674c-3.872,0-7.384,1.571-9.935,4.107h-41.053c-9.831,0-18.333,6.327-21.159,15.743L84.8,158.944    c-6.091,1.788-11.601,5.306-15.816,10.245c-6.274,7.353-9.007,17.04-7.503,26.586l9.919,68.161    c0.597,4.099,4.401,6.936,8.502,6.342c4.099-0.596,6.938-4.403,6.342-8.502l-9.926-68.206c-0.005-0.033-0.01-0.066-0.015-0.1    c-0.832-5.221,0.66-10.522,4.091-14.543c3.379-3.96,8.509-6.328,13.719-6.328h10.309c-0.178,1.325-0.268,2.669-0.268,4.006    c0,0,0,43.426,0,43.497c0.045,13.183,11.169,23.529,23.988,23.949c12.735-0.238,23.095-10.797,23.095-23.538c0,0,0-9.153,0-9.164    c0-11.236,17.083-11.507,17.083-0.42v49.045c0,11.747,8.355,21.54,19.336,23.569c0.034,0.006,0.068,0.012,0.102,0.019    c5.278,0.98,10.879-0.002,15.549-2.629c7.308-4.111,12.095-12.132,12.095-20.539c0,0,0-19.807,0-19.871    c0.028-5,4.466-9.504,9.562-8.893c4.19,0.502,7.521,4.264,7.521,8.48c0,0,0,49.033,0,49.046c0,13.148,10.834,23.958,23.959,23.958    c0.01,0,0.02,0,0.03,0c12.734-0.239,23.095-10.798,23.095-23.538c0,0,0-68.489,0-68.5c0-4.686,3.9-9.045,8.707-8.96    c4.619,0.086,8.376,3.917,8.376,8.54v29.591c0,10.939,7.246,20.183,17.111,23.042c0.022,0.006,0.043,0.013,0.065,0.019    c14.66,4.283,29.907-7.476,29.907-22.641c0,0,0-19.789,0-19.864c0-4.608,3.955-9.078,8.708-8.96    c4.529,0.112,8.375,4.009,8.375,8.54c0,0,0,39.318,0,39.327c0.004,10.927,7.238,20.161,17.089,23.027    c0.046,0.014,0.092,0.027,0.138,0.04c14.608,4.207,29.857-7.428,29.857-22.655c0,0,0-93.518,0-93.519    c0-1.335-0.09-2.681-0.268-4.005c0,0,10.306,0,10.309,0c10.925,0,19.528,10.09,17.81,20.872c-0.005,0.033-0.01,0.066-0.015,0.1    l-39.202,269.388h-33.53c-4.142,0-7.5,3.358-7.5,7.5c0,4.142,3.358,7.5,7.5,7.5h40.018c5.25,0,9.521,4.271,9.521,9.521    S408.274,497,403.024,497H109.032c-5.25,0-9.521-4.271-9.521-9.521s4.271-9.521,9.521-9.521h223.974c4.142,0,7.5-3.358,7.5-7.5    c0-4.142-3.358-7.5-7.5-7.5H115.52L90.609,291.776c-0.597-4.099-4.399-6.938-8.502-6.342c-4.099,0.596-6.938,4.403-6.342,8.502    l24.815,170.523c-9.369,3.451-16.069,12.467-16.069,23.02c0,13.521,11,24.521,24.521,24.521h293.992    c13.521,0,24.521-11,24.521-24.521c0-10.552-6.7-19.568-16.069-23.02c0,0,39.086-268.591,39.099-268.678    C452.935,179.563,443.077,163.588,427.255,158.944z M199.575,15h112.906v22.396H199.575V15z M198.674,52.395h114.707    c3.872,0,7.384-1.571,9.935-4.107h24.617l29.491,98.306H134.632l29.491-98.306h24.616    C191.29,50.824,194.801,52.395,198.674,52.395z M117.043,151.977c-2.274,1.586-4.346,3.476-6.103,5.622h-10.076L140.895,24.16    c0.907-3.022,3.636-5.053,6.792-5.053h36.888v14.182h-26.032c-3.312,0-6.232,2.172-7.184,5.345l-33.916,113.053    C117.306,151.779,117.179,151.883,117.043,151.977z M392.901,270.124c0.001,1.944-0.671,3.746-1.787,5.191    c-1.535,1.987-3.914,3.296-6.588,3.347c-4.807,0.09-8.708-4.283-8.708-8.961c0,0,0-39.317,0-39.318    c0-8.189-4.508-15.981-11.512-20.192c-12.289-7.389-27.95-1.562-33.587,11.299c-1.284,2.929-1.985,6.112-1.985,9.313    c0,0,0,19.861,0,19.864c0,4.562-3.813,8.455-8.376,8.54c-4.765,0.095-8.707-4.322-8.707-8.96c0,0,0-29.577,0-29.591    c0-12.55-10.578-23.305-23.11-23.538c-13.152-0.244-23.974,10.943-23.974,23.958v68.5c0,4.623-3.757,8.454-8.381,8.54    c-4.765,0.089-8.702-4.321-8.702-8.96c0,0,0-49.032,0-49.045c0-12.543-10.593-23.304-23.11-23.537    c-12.863-0.24-23.973,11.201-23.973,23.958v19.863c0,4.574-3.811,8.455-8.381,8.54c-4.763,0.089-8.702-4.325-8.702-8.96    c0,0,0-47.912,0-49.026c0-14.209-13.42-25.597-27.417-23.228c-10.388,1.76-18.471,10.827-19.542,21.232    c-0.082,0.796-0.123,1.597-0.123,2.397v9.164c0,4.623-3.757,8.454-8.376,8.54c-4.786,0.096-8.707-4.305-8.707-8.96    c0,0,0-43.454,0-43.488c0-8.121,6.905-15.01,15.01-15.01c0,0,243.633,0,243.728,0c8.063,0,15.01,6.957,15.01,15.01V270.124z     M401.114,157.599c-1.855-2.264-4.071-4.277-6.501-5.912L360.697,38.634c-0.952-3.173-3.872-5.345-7.184-5.345h-26.032V19.107    h36.888c3.156,0,5.885,2.031,6.792,5.053l40.031,133.438L401.114,157.599z"/></g><g transform="matrix(0.11718681454658508 0 0 0.11718681454658508 206 250.0000038051378)" id="L1_4"><path d="M117.878,318.825c-26.985,0-48.938,21.954-48.938,48.938c0,26.985,21.954,48.938,48.938,48.938    s48.938-21.954,48.938-48.938C166.816,340.778,144.862,318.825,117.878,318.825z M117.878,401.701    c-18.714,0-33.938-15.225-33.938-33.938c0-18.713,15.225-33.938,33.938-33.938s33.938,15.225,33.938,33.938    C151.816,386.477,136.591,401.701,117.878,401.701z"/><path d="M95.313,196.725c-26.985,0-48.938,21.954-48.938,48.938c0,26.984,21.954,48.938,48.938,48.938    s48.938-21.954,48.938-48.938C144.251,218.679,122.298,196.725,95.313,196.725z M95.313,279.602    c-18.714,0-33.938-15.225-33.938-33.938c0-18.714,15.225-33.938,33.938-33.938c18.713,0,33.938,15.225,33.938,33.938    S114.027,279.602,95.313,279.602z"/><path d="M211.685,133.954c-35.073,0-59.165,37.945-44.292,69.702c8.02,17.127,25.427,28.194,44.346,28.194    c20.406,0,39.051-13.131,45.987-32.285C269.108,168.132,244.98,133.954,211.685,133.954z M243.623,194.457    c-4.805,13.268-17.765,22.393-31.883,22.393c-13.125,0-25.199-7.676-30.762-19.555c-3.845-8.21-4.263-17.425-1.176-25.949    c4.79-13.226,17.811-22.392,31.883-22.392C234.787,148.954,251.501,172.702,243.623,194.457z"/><path d="M446.495,139.519c4.174-8.461,6.562-17.922,7.096-28.333l0.023-0.448c1.037-21.358-6.505-41.909-20.692-56.382    c-11.411-11.641-19.786-24.509-24.893-38.246c-3.432-9.231-11.602-15.196-20.815-15.196c-5.414-0.001-10.675,2.128-14.816,5.993    c-17.401,16.244-38.263,43.697-43.818,84.842c-23.273-4.378-47.418-6.602-71.902-6.602c-61.212,0-117.961,13.26-164.112,38.347    c-3.639,1.978-4.985,6.532-3.007,10.171c1.978,3.639,6.531,4.986,10.171,3.007c43.959-23.895,98.231-36.525,156.948-36.525    c24.079,0,47.803,2.226,70.62,6.62c-0.162,6.004,0.341,12.018,1.617,17.889c0.08,0.368,0.15,0.739,0.236,1.104    c-9.902,2.536-18.893,8.125-25.505,16.058c-8.369,10.041-12.328,22.74-11.147,35.758c2.255,24.843,23.752,44.511,48.705,44.511    c4.345,0,8.682-0.605,12.87-1.741c2.405,12.292,5.829,25.502,10.689,38.862c-0.015,0.041-0.03,0.081-0.045,0.122    c-1.18,3.25-2.25,6.537-3.22,9.855c-8.659,29.575-12.996,72.237-11.635,116.285c-34.165,10.005-71.258,15.278-107.671,15.278    c0,0-0.299,0-0.32,0c-17.169,0-29.947,16.964-25.053,33.46c0.743,2.501,1.576,4.998,2.458,7.641    c6.345,19.015,11.825,35.437-12.746,48.8c-6.966,3.788-14.513,5.46-22.391,5.46c-40.668-0.001-90.151-44.555-113.925-72.543    c-19.349-22.779-34.586-49.95-44.063-78.578c-9.591-28.971-13.079-58.897-10.086-86.544    c4.718-43.588,25.032-80.203,58.747-105.885c3.295-2.51,3.931-7.216,1.421-10.511s-7.216-3.931-10.511-1.421    C28.651,168.865,6.322,209.047,1.15,256.83c-6.529,60.316,15.015,126.278,57.63,176.447c7.228,8.509,33.406,37.861,66.792,58.302    c21.186,12.971,40.982,19.511,58.604,19.51c10.701,0,20.603-2.413,29.52-7.262c35.611-19.367,26.101-47.867,19.808-66.725    c-0.841-2.519-1.635-4.9-2.306-7.159c-2.102-7.08,3.416-14.151,10.688-14.194h0.305c36.598,0,73.869-5.147,108.427-14.904    c2.398,39.134,9.41,74.021,20.715,90.629c6.785,9.968,14.162,12.061,19.154,12.061s12.369-2.092,19.154-12.061    c14.55-21.375,21.992-73.024,21.63-125.045c24.186-14.721,43.448-31.632,57.271-50.321c15.567-21.047,23.461-43.313,23.461-66.177    C512.003,208.759,488.794,169.769,446.495,139.519z M341.203,207.087c-17.33,0-32.203-13.64-33.767-30.866    c-1.533-16.892,10.22-32.863,26.836-36.285c0.257,0.514,0.522,1.023,0.779,1.537c1.343,2.52,2.859,4.931,4.51,7.259    c2.652,3.741,5.718,7.287,9.077,10.413c-0.193,7.301-0.186,24.544,2.923,46.331C348.223,206.536,344.716,207.087,341.203,207.087z     M342.631,101.348c3.29-41.074,23.407-67.983,40.003-83.475c1.373-1.282,2.957-1.959,4.579-1.959    c2.922-0.001,5.511,2.077,6.754,5.422c5.845,15.723,15.347,30.365,28.241,43.52c11.271,11.499,17.256,27.958,16.422,45.156    l-0.02,0.393c-1.38,27.097-23.307,52.541-52.14,50.186C356.905,158.177,340.431,128.813,342.631,101.348z M363.668,169.582    c4.584,2.264,9.413,3.929,14.424,4.951c4.855,0.991,9.847,1.387,14.797,1.146c8.399-0.408,16.899-2.663,24.424-6.503    c-0.375,17.257-2.806,49.594-14.363,82.567h-24.927C366.552,219.016,364.071,186.931,363.668,169.582z M416.196,382.266    c-1.157,45.997-8.597,85.55-18.955,100.768c-1.398,2.054-4.136,5.501-6.754,5.501c-2.618,0-5.356-3.447-6.754-5.501    c-9.762-14.341-16.93-50.301-18.691-92.895c-0.553-13.228-0.555-26.478-0.074-39.709c1.263-33.017,5.834-62.915,13.029-83.687    h24.981c7.945,22.951,12.768,57.333,13.325,95.535c0,0.041,0.009,0.081,0.01,0.123    C416.399,368.931,416.365,375.564,416.196,382.266z M476.481,307.188c-11.23,15.184-26.515,29.178-45.536,41.708    c-1.427-35.993-6.513-67.196-14.59-89.291c-0.048-0.132-0.096-0.264-0.144-0.395c16.456-45.239,16.466-88.77,16.107-100.67    c1.487-1.4,2.92-2.864,4.281-4.387c0.185-0.207,1.738-2.041,1.758-2.027c37.882,27.292,58.645,61.809,58.645,97.805    C497.002,269.514,490.098,288.779,476.481,307.188z"/></g><g transform="matrix(0.1171875 0 0 0.1171875 295 160)" id="L1_5"><path d="M176.193,252.833c-2.929-2.929-7.678-2.929-10.607,0l-7.738,7.738c-2.929,2.929-2.929,7.678,0,10.607    c2.826,2.825,7.675,2.933,10.607,0l7.738-7.738C179.122,260.511,179.122,255.761,176.193,252.833z"/><path d="M259.081,335.722c-2.93-2.929-7.677-2.928-10.608,0l-7.737,7.738c-2.929,2.929-2.929,7.678,0,10.607    c2.825,2.826,7.674,2.931,10.607,0.001l7.738-7.738C262.01,343.399,262.009,338.651,259.081,335.722z"/><path d="M228.849,308.302l-25.236-25.235c-2.892-2.893-7.718-2.889-10.607,0c0,0-8.392,8.392-8.396,8.396    c-9.773,9.774-9.768,26.076,0,35.843c4.884,4.885,11.403,7.325,17.921,7.325c6.519,0,13.039-2.443,17.921-7.324    c0,0,8.385-8.385,8.397-8.397C231.742,316.017,231.737,311.19,228.849,308.302z M209.844,316.7c-3.99,3.99-10.64,3.989-14.629,0    c-3.983-3.984-3.973-10.656,0-14.629l3.093-3.093l14.629,14.629C212.937,313.606,209.847,316.697,209.844,316.7z"/><path d="M496.61,94.554c0-0.003-79.213-79.215-79.248-79.25c-20.293-20.293-54.156-20.273-74.428,0l-19.211,19.21    c-4.301-2.477-9.191-3.805-14.289-3.805c-15.636,0-28.702,13.083-28.702,28.701c0,5.098,1.327,9.989,3.805,14.291l-28.093,28.094    c-4.301-2.478-9.193-3.805-14.29-3.805c-15.65,0-28.702,13.078-28.702,28.701c0,5.097,1.327,9.989,3.805,14.29L76.844,281.395    c-2.929,2.929-2.929,7.677,0,10.607c2.929,2.929,7.678,2.929,10.607,0l139.711-139.71l132.462,132.462L156.561,487.814    l-0.007-0.075c0,0-2.56-27.631-2.563-27.661c-0.33-3.561-3.223-6.446-6.776-6.776l-37.443-3.47l-3.47-37.443    c-0.333-3.595-3.181-6.442-6.776-6.775l-37.443-3.47c0,0-3.468-37.42-3.47-37.443c-0.318-3.43-3.175-6.443-6.776-6.776    l-27.736-2.57l42.137-42.137c2.929-2.929,2.929-7.677,0-10.607s-7.678-2.929-10.607,0c0,0-53.406,53.406-53.435,53.435    c-1.743,1.743-2.512,4.232-2.075,6.637l21.845,121.217c0.556,3.083,2.969,5.496,6.051,6.051c0,0,121.208,21.843,121.217,21.845    c2.364,0.426,4.934-0.373,6.636-2.075l215.062-215.061c4.301,2.478,9.191,3.805,14.29,3.805c15.658,0,28.702-13.057,28.702-28.701    c0-5.098-1.327-9.988-3.805-14.291l28.094-28.094c4.301,2.477,9.191,3.805,14.289,3.805c15.647,0,28.702-13.082,28.702-28.701    c0-5.097-1.327-9.989-3.805-14.29l19.211-19.21C517.13,148.462,517.13,115.074,496.61,94.554z M35.805,476.111l-6.755-37.494    l44.249,44.249L35.805,476.111z M99.175,487.528l-74.789-74.789l-7.753-43.013l27.617,2.559c0,0,3.469,37.441,3.47,37.444    c0.214,2.314,1.551,4.462,3.524,5.687c0.98,0.609,2.104,0.984,3.252,1.089l37.443,3.47l3.47,37.443    c0.333,3.594,3.181,6.442,6.776,6.775l37.443,3.47l2.559,27.617L99.175,487.528z M394.91,279.449    c-5.296,5.296-14.09,5.285-19.376,0c0,0-142.691-142.692-143.067-143.068c-8.443-8.443-2.24-23.389,9.688-23.389    c3.659,0,7.1,1.425,9.689,4.013L394.91,260.073C400.253,265.414,400.253,274.106,394.91,279.449z M400.215,244.162    L267.753,111.701l26.69-26.69l132.462,132.461L400.215,244.162z M467.495,176.881l-20.879-20.879    c-2.929-2.929-7.678-2.929-10.607,0c-2.887,2.887-2.883,7.725,0,10.608l26.182,26.182c2.587,2.588,4.012,6.027,4.013,9.686    c0.001,7.467-6.251,13.702-13.702,13.702c-3.659,0-7.1-1.425-9.688-4.013L299.746,69.1c-2.587-2.588-4.013-6.028-4.013-9.688    c0-7.479,6.229-13.702,13.702-13.702c3.659,0,7.099,1.425,9.688,4.013l95.672,95.672c2.929,2.929,7.678,2.929,10.607,0    c2.929-2.929,2.929-7.678,0-10.607l-90.369-90.369c0,0,18.497-18.497,18.509-18.509c14.509-14.509,38.721-14.494,53.214,0    l79.248,79.247c14.671,14.671,14.671,38.543,0,53.214L467.495,176.881z"/></g><g transform="matrix(0.1171872690320015 0 0 0.1171872690320015 126 169)" id="L1_6"><path d="M324.399,96.413c-2.929-2.929-7.678-2.929-10.606,0l-5.642,5.643c-2.929,2.928-2.929,7.677,0,10.606    c2.827,2.827,7.687,2.92,10.606,0l5.642-5.643C327.328,104.09,327.328,99.341,324.399,96.413z"/><path d="M386.752,158.764c-2.929-2.929-7.678-2.929-10.606,0l-5.643,5.643c-2.929,2.929-2.929,7.677,0,10.606    c1.464,1.466,3.384,2.197,5.303,2.197s3.839-0.732,5.303-2.197l5.643-5.642C389.681,166.442,389.681,161.693,386.752,158.764z"/><path d="M360.2,145.334c-0.277-4.133-3.851-7.259-7.985-6.98c-1.894,0.129-3.825-0.643-5.293-2.11    c-1.469-1.469-2.238-3.398-2.111-5.293c0.278-4.133-2.847-7.708-6.98-7.986c-4.134-0.276-7.708,2.847-7.986,6.98    c-0.418,6.214,1.94,12.375,6.47,16.906c4.078,4.077,9.728,6.505,15.493,6.515C356.386,153.374,360.532,150.285,360.2,145.334z"/><path d="M498.769,126.972L385.111,13.313C376.526,4.728,365.112,0,352.971,0s-23.555,4.728-32.14,13.313L68.793,265.352    c-2.929,2.929-2.929,7.678,0,10.606c2.929,2.929,7.678,2.929,10.606,0l117.702-117.703l127.808,127.808    c0,0-174.6,174.539-175.406,175.184c-0.013,0.011-0.028,0.021-0.041,0.032c-11.948,9.556-29.858,8.685-40.722-2.118    l-84.738-84.738c-11.874-11.874-11.874-31.193,0-43.067l34.184-34.185c2.929-2.929,2.929-7.678,0-10.606    c-2.928-2.929-7.677-2.929-10.606,0L13.395,320.75c-17.721,17.722-17.721,46.558,0,64.28l113.658,113.658    c8.585,8.584,20,13.313,32.14,13.313s23.555-4.728,32.14-13.313c0,0,307.386-307.386,307.436-307.436    C516.284,173.737,516.262,144.464,498.769,126.972z M180.726,488.08c-5.752,5.752-13.399,8.92-21.534,8.92    c-11.383,0-19.012-6.398-26.589-13.976c8.154-0.408,15.907-2.97,22.617-7.395c0.041-0.027,0.082-0.054,0.123-0.081    c2.546-1.667,4.921-3.628,7.072-5.779l173.1-173.1l18.311,18.311L180.726,488.08z M488.163,180.645l-123.729,123.73    l-18.311-18.311l16.858-16.858c2.929-2.929,2.929-7.677,0-10.606c-2.929-2.929-7.678-2.929-10.606,0l-16.858,16.858    L207.708,147.649l123.73-123.73C337.19,18.167,344.837,15,352.971,15c8.134,0,15.782,3.167,21.534,8.919l84.741,84.741    c5.752,5.752,8.919,13.399,8.919,21.533c0,8.135-3.167,15.782-8.919,21.534c0,0-85.672,85.379-86.156,85.936    c-2.632,3.032-2.399,7.577,0.495,10.351c2.856,2.738,7.771,2.816,10.596-0.009c0,0,85.664-85.664,85.671-85.671    c7.826-7.826,12.695-18.678,13.255-29.812c0,0,5.051,5.051,5.056,5.056C499.894,149.309,499.868,168.94,488.163,180.645z"/></g><g transform="matrix(0.1171875 0 0 0.1171875 120 -22)" id="L1_7"><path d="M195.181,179.075c-4.142,0-7.5,3.358-7.5,7.5v11.007c0,4.142,3.359,7.5,7.5,7.5c4.143,0,7.5-3.358,7.5-7.5v-11.007    C202.681,182.433,199.324,179.075,195.181,179.075z"/><path d="M316.819,179.075c-4.142,0-7.5,3.358-7.5,7.5v11.007c0,4.142,3.358,7.5,7.5,7.5c4.142,0,7.5-3.358,7.5-7.5v-11.007    C324.319,182.433,320.961,179.075,316.819,179.075z"/><path d="M275.947,191.169c-3.119-2.726-7.857-2.407-10.583,0.711c-2.265,2.591-5.678,4.077-9.364,4.077s-7.099-1.486-9.364-4.077    c-2.726-3.119-7.464-3.437-10.583-0.711s-3.437,7.464-0.711,10.583c5.114,5.85,12.643,9.205,20.658,9.205    s15.544-3.355,20.658-9.205C279.384,198.633,279.065,193.895,275.947,191.169z"/><path d="M431.147,100.271c9.963,0,18.068-8.105,18.068-18.067V56.371c0-9.962-8.105-18.068-18.068-18.068h-49.803    c-4.142,0-7.5,3.358-7.5,7.5c0,4.142,3.358,7.5,7.5,7.5h49.803c1.692,0,3.068,1.376,3.068,3.068v25.833    c0,1.691-1.376,3.067-3.068,3.067H80.853c-1.692,0-3.068-1.376-3.068-3.067V56.371c0-1.692,1.376-3.068,3.068-3.068h270.492    c4.142,0,7.5-3.358,7.5-7.5c0-4.142-3.358-7.5-7.5-7.5h-64.844V15.847C286.501,7.109,279.392,0,270.654,0h-29.307    C232.609,0,225.5,7.109,225.5,15.847v22.456H80.853c-9.962,0-18.068,8.105-18.068,18.068v25.833    c0,9.962,8.105,18.067,18.068,18.067h7.9V289.76h-7.9c-9.962,0-18.068,8.105-18.068,18.068v25.832    c0,9.963,8.105,18.068,18.068,18.068h49.532c0,0-43.398,137.212-43.446,137.362C83.408,500.252,92.05,512,103.721,512h27.058    c7.712,0,14.457-4.94,16.783-12.294l8.782-27.766h199.313l8.782,27.766c2.326,7.354,9.07,12.294,16.782,12.294    c0,0,27.038,0,27.058,0c11.713,0,20.316-11.739,16.782-22.91l-43.446-137.362h49.532c9.963,0,18.068-8.105,18.068-18.068v-25.832    c0-9.963-8.105-18.068-18.068-18.068h-7.9V100.271H431.147z M240.499,15.847L240.499,15.847c0-0.467,0.38-0.847,0.847-0.847    h29.307c0.467,0,0.847,0.38,0.847,0.847v22.456h-31.001V15.847z M133.26,495.183c-0.344,1.087-1.341,1.817-2.481,1.817    c0,0-27.039,0-27.058,0c-1.704,0-3.011-1.711-2.481-3.387l44.876-141.886h32.516L133.26,495.183z M194.365,351.728h123.27v0    l23.578,74.545H170.788L194.365,351.728z M161.088,456.94l4.956-15.668h179.914l4.956,15.668H161.088z M410.76,493.614    c0.501,1.586-0.701,3.386-2.481,3.386h-27.058c-1.14,0-2.137-0.73-2.48-1.817l-45.373-143.455h32.516    C365.883,351.728,410.672,493.336,410.76,493.614z M431.147,304.76c1.692,0,3.068,1.376,3.068,3.068v25.832    c0,1.691-1.376,3.068-3.068,3.068H80.853c-1.692,0-3.068-1.376-3.068-3.068c0,0,0-25.832,0-25.832    c0-1.691,1.376-3.068,3.068-3.068c0,0,61.307,0,61.353,0c4.037,0,7.5-3.47,7.5-7.5c0-4.142-3.358-7.5-7.5-7.5h-38.453V100.271    h304.494V289.76H172.206c-4.142,0-7.5,3.358-7.5,7.5c0,4.024,3.479,7.5,7.5,7.5H431.147z"/></g><g transform="matrix(0.1171875 0 0 0.1171875 300.00000018596654 -14)" id="L1_8"><path d="M389.159,465.871c-3.438-68.654-36.639-98.632-46.755-106.198c-1.297-0.97-2.873-1.494-4.492-1.494h-112.96    c-1.619,0-3.195,0.524-4.492,1.494c-10.145,7.587-43.5,37.708-46.782,106.764c-0.097,2.049,0.648,4.048,2.064,5.532    s3.377,2.324,5.428,2.324h200.525c0.007,0,0.013,0,0.02,0c4.142,0,7.5-3.358,7.5-7.5    C389.215,466.481,389.196,466.173,389.159,465.871z M189.184,459.294c4.578-53.111,28.357-77.926,38.354-86.115h107.787    c9.997,8.188,33.776,33.001,38.354,86.115H189.184z"/><path d="M237.229,401.737c-4.142,0-7.5,3.358-7.5,7.5v8c0,4.143,3.358,7.5,7.5,7.5c4.142,0,7.5-3.357,7.5-7.5v-8    C244.729,405.095,241.371,401.737,237.229,401.737z"/><path d="M325.635,401.737c-4.142,0-7.5,3.358-7.5,7.5v8c0,4.143,3.358,7.5,7.5,7.5c4.142,0,7.5-3.357,7.5-7.5v-8    C333.135,405.095,329.777,401.737,325.635,401.737z"/><path d="M297.278,411.034c-3.119-2.726-7.857-2.408-10.583,0.71c-1.257,1.438-3.176,2.263-5.263,2.263    c-2.088,0-4.006-0.825-5.264-2.263c-2.726-3.119-7.464-3.437-10.583-0.71c-3.119,2.727-3.437,7.464-0.71,10.583    c4.105,4.697,10.141,7.391,16.557,7.391s12.45-2.694,16.556-7.391C300.714,418.498,300.396,413.76,297.278,411.034z"/><path d="M408.562,385.697c-1.74-3.758-6.196-5.396-9.957-3.655c-3.759,1.74-5.396,6.198-3.655,9.957    c11.7,25.272,17.484,54.848,17.191,87.905c-0.084,9.426-7.795,17.096-17.19,17.096H167.913c-9.395,0-17.106-7.669-17.19-17.096    c-0.485-54.747,16.086-90.328,30.072-110.537c12.349-17.842,24.926-27.208,29.212-30.094h142.847    c4.18,2.817,16.13,11.718,28.096,28.51c2.403,3.374,7.087,4.16,10.46,1.756c3.374-2.403,4.16-7.087,1.756-10.46    c-7.688-10.791-15.384-18.689-21.546-24.133c10.403-5.83,17.455-16.958,17.455-29.708c0-18.767-15.268-34.035-34.035-34.035    h-49.913c-6.011-30.998-15.265-62.509-27.54-93.766C246.48,98.23,204.114,40.868,151.664,6.944C144.639,2.401,136.52,0,128.186,0    c-14.771,0-28.372,7.396-36.384,19.786c-6.279,9.709-8.402,21.283-5.976,32.589c2.425,11.306,9.109,20.991,18.818,27.27    c49.013,31.697,88.072,77.157,116.092,135.118c9.263,19.162,17.078,38.097,23.326,56.44h-36.238    c-18.767,0-34.035,15.268-34.035,34.035c0,12.748,7.049,23.875,17.449,29.705c-6.344,5.603-14.312,13.811-22.224,25.092    c-15.477,22.071-33.816,60.806-33.292,120.001C135.88,497.661,150.32,512,167.913,512h227.038    c17.592,0,32.033-14.338,32.189-31.963C427.453,444.742,421.202,413.001,408.562,385.697z M234.241,208.234    C205.007,147.762,164.145,100.26,112.79,67.049c-6.345-4.104-10.712-10.433-12.298-17.821c-1.585-7.388-0.198-14.952,3.906-21.297    C109.634,19.834,118.527,15,128.186,15c5.438,0,10.739,1.57,15.332,4.54c49.762,32.185,90.171,87.154,120.107,163.381    c11.564,29.446,20.367,59.101,26.213,88.282h-7.543c-7.517-29.591-20.964-71.625-43.766-113.569    c-27.346-50.302-62.347-90.358-104.031-119.058c-3.412-2.349-8.082-1.487-10.43,1.924c-2.349,3.412-1.488,8.082,1.924,10.431    c39.722,27.348,73.15,65.658,99.358,113.867c21.146,38.897,33.996,77.941,41.452,106.405h-6.909    C253.198,250.779,244.581,229.624,234.241,208.234z M188.791,305.238c0-10.496,8.539-19.035,19.035-19.035h147.215    c10.494,0,19.033,8.539,19.033,19.035c0,10.496-8.539,19.035-19.034,19.035H207.825    C197.33,324.273,188.791,315.734,188.791,305.238z"/></g></defs><g fi:class="KUsePattern"><pattern id="pattern_L1_0" width="350" height="350" patternUnits="userSpaceOnUse"><use xlink:href="#L1_0" x="-350" y="-350"/><use xlink:href="#L1_0" x="0" y="-350"/><use xlink:href="#L1_0" x="350" y="-350"/><use xlink:href="#L1_0" x="-350" y="0"/><use xlink:href="#L1_0" x="0" y="0"/><use xlink:href="#L1_0" x="350" y="0"/><use xlink:href="#L1_0" x="-350" y="350"/><use xlink:href="#L1_0" x="0" y="350"/><use xlink:href="#L1_0" x="350" y="350"/></pattern><rect x="0" y="0" width="100%" height="100%" fill="url(#pattern_L1_0)"/></g><g fi:class="KUsePattern"><pattern id="pattern_L1_2" width="350" height="350" patternUnits="userSpaceOnUse"><use xlink:href="#L1_2" x="-350" y="-350"/><use xlink:href="#L1_2" x="0" y="-350"/><use xlink:href="#L1_2" x="350" y="-350"/><use xlink:href="#L1_2" x="-350" y="0"/><use xlink:href="#L1_2" x="0" y="0"/><use xlink:href="#L1_2" x="350" y="0"/><use xlink:href="#L1_2" x="-350" y="350"/><use xlink:href="#L1_2" x="0" y="350"/><use xlink:href="#L1_2" x="350" y="350"/></pattern><rect x="0" y="0" width="100%" height="100%" fill="url(#pattern_L1_2)"/></g><g fi:class="KUsePattern"><pattern id="pattern_L1_3" width="350" height="350" patternUnits="userSpaceOnUse"><use xlink:href="#L1_3" x="-350" y="-350"/><use xlink:href="#L1_3" x="0" y="-350"/><use xlink:href="#L1_3" x="350" y="-350"/><use xlink:href="#L1_3" x="-350" y="0"/><use xlink:href="#L1_3" x="0" y="0"/><use xlink:href="#L1_3" x="350" y="0"/><use xlink:href="#L1_3" x="-350" y="350"/><use xlink:href="#L1_3" x="0" y="350"/><use xlink:href="#L1_3" x="350" y="350"/></pattern><rect x="0" y="0" width="100%" height="100%" fill="url(#pattern_L1_3)"/></g><g fi:class="KUsePattern"><pattern id="pattern_L1_4" width="350" height="350" patternUnits="userSpaceOnUse"><use xlink:href="#L1_4" x="-350" y="-350"/><use xlink:href="#L1_4" x="0" y="-350"/><use xlink:href="#L1_4" x="350" y="-350"/><use xlink:href="#L1_4" x="-350" y="0"/><use xlink:href="#L1_4" x="0" y="0"/><use xlink:href="#L1_4" x="350" y="0"/><use xlink:href="#L1_4" x="-350" y="350"/><use xlink:href="#L1_4" x="0" y="350"/><use xlink:href="#L1_4" x="350" y="350"/></pattern><rect x="0" y="0" width="100%" height="100%" fill="url(#pattern_L1_4)"/></g><g fi:class="KUsePattern"><pattern id="pattern_L1_5" width="350" height="350" patternUnits="userSpaceOnUse"><use xlink:href="#L1_5" x="-350" y="-350"/><use xlink:href="#L1_5" x="0" y="-350"/><use xlink:href="#L1_5" x="350" y="-350"/><use xlink:href="#L1_5" x="-350" y="0"/><use xlink:href="#L1_5" x="0" y="0"/><use xlink:href="#L1_5" x="350" y="0"/><use xlink:href="#L1_5" x="-350" y="350"/><use xlink:href="#L1_5" x="0" y="350"/><use xlink:href="#L1_5" x="350" y="350"/></pattern><rect x="0" y="0" width="100%" height="100%" fill="url(#pattern_L1_5)"/></g><g fi:class="KUsePattern"><pattern id="pattern_L1_6" width="350" height="350" patternUnits="userSpaceOnUse"><use xlink:href="#L1_6" x="-350" y="-350"/><use xlink:href="#L1_6" x="0" y="-350"/><use xlink:href="#L1_6" x="350" y="-350"/><use xlink:href="#L1_6" x="-350" y="0"/><use xlink:href="#L1_6" x="0" y="0"/><use xlink:href="#L1_6" x="350" y="0"/><use xlink:href="#L1_6" x="-350" y="350"/><use xlink:href="#L1_6" x="0" y="350"/><use xlink:href="#L1_6" x="350" y="350"/></pattern><rect x="0" y="0" width="100%" height="100%" fill="url(#pattern_L1_6)"/></g><g fi:class="KUsePattern"><pattern id="pattern_L1_7" width="350" height="350" patternUnits="userSpaceOnUse"><use xlink:href="#L1_7" x="-350" y="-350"/><use xlink:href="#L1_7" x="0" y="-350"/><use xlink:href="#L1_7" x="350" y="-350"/><use xlink:href="#L1_7" x="-350" y="0"/><use xlink:href="#L1_7" x="0" y="0"/><use xlink:href="#L1_7" x="350" y="0"/><use xlink:href="#L1_7" x="-350" y="350"/><use xlink:href="#L1_7" x="0" y="350"/><use xlink:href="#L1_7" x="350" y="350"/></pattern><rect x="0" y="0" width="100%" height="100%" fill="url(#pattern_L1_7)"/></g><g fi:class="KUsePattern"><pattern id="pattern_L1_8" width="350" height="350" patternUnits="userSpaceOnUse"><use xlink:href="#L1_8" x="-350" y="-350"/><use xlink:href="#L1_8" x="0" y="-350"/><use xlink:href="#L1_8" x="350" y="-350"/><use xlink:href="#L1_8" x="-350" y="0"/><use xlink:href="#L1_8" x="0" y="0"/><use xlink:href="#L1_8" x="350" y="0"/><use xlink:href="#L1_8" x="-350" y="350"/><use xlink:href="#L1_8" x="0" y="350"/><use xlink:href="#L1_8" x="350" y="350"/></pattern><rect x="0" y="0" width="100%" height="100%" fill="url(#pattern_L1_8)"/></g></svg>